[img]http://img846.imageshack.us/img846/6697/onemoney.jpg[/img]

[code]
One For The Money 2012 720p BDRip XviD AC3-26k-
 
http://www.imdb.com/title/tt1598828/

Unemployed and newly-divorced Stephanie Plum lands a job at her cousin's bail-bond business, 
where her first assignment puts her on the trail of a wanted local cop from her romantic past.

Sources - ONE_FOR_THE_MONEY_BD...THANKS :P

Format                                   : AVI
Format/Info                              : Audio Video Interleave
Format profile                           : OpenDML
File size                                : 2.33 GiB
Duration                                 : 1h 31mn
Overall bit rate                         : 3 652 Kbps
Writing library                          : VirtualDub build 32839/release

Video
ID                                       : 0
Format                                   : MPEG-4 Visual
Format profile                           : Advanced Simple@L5
Format settings, BVOP                    : 2
Format settings, QPel                    : No
Format settings, GMC                     : No warppoints
Format settings, Matrix                  : Default (H.263)
Codec ID                                 : XVID
Codec ID/Hint                            : XviD
Duration                                 : 1h 31mn
Bit rate                                 : 3 000 Kbps
Width                                    : 1 280 pixels
Height                                   : 544 pixels
Display aspect ratio                     : 2.35:1
Frame rate                               : 23.976 fps
Color space                              : YUV
Chroma subsampling                       : 4:2:0
Bit depth                                : 8 bits
Scan type                                : Progressive
Compression mode                         : Lossy
Bits/(Pixel*Frame)                       : 0.180
Stream size                              : 1.91 GiB (82%)
Writing library                          : XviD 1.2.1 (UTC 2008-12-04)

Audio
ID                                       : 1
Format                                   : AC-3
Format/Info                              : Audio Coding 3
Mode extension                           : CM (complete main)
Codec ID                                 : 2000
Duration                                 : 1h 31mn
Bit rate mode                            : Constant
Bit rate                                 : 640 Kbps
Channel(s)                               : 6 channels
Channel positions                        : Front: L C R, Side: L R, LFE
Sampling rate                            : 48.0 KHz
Bit depth                                : 16 bits
Compression mode                         : Lossy
Stream size                              : 418 MiB (18%)
Alignment                                : Split accross interleaves
Interleave, duration                     : 42 ms (1.00 video frame)
Interleave, preload duration             : 500 ms



Notes -
Did my thing... turned out real nice...enjoy

[/code]
Screens:
[img]http://i.imgur.com/02bPP.jpg[/img]
[img]http://i.imgur.com/cgZZh.png[/img]
[img]http://img196.imageshack.us/img196/4048/20586626.png[/img]
[img]http://img823.imageshack.us/img823/4581/83910106.png[/img]

Greetz:
Xtreme 

Encode|FYA|ILLUMANTI|CM8|RX|VISI​ON|HDSCENE|xTriLL|DTRG|CRYS|REMIX​HD|BIDA|RX|REFILL|INSPiRAL|SIC|
|HO​PE|Anonymous|GooN
To all the people who have helped me  you know who you are

Anything to offer email us @: 26k@hushmail.me


[img]http://img851.imageshack.us/img851/5503/26ks.jpg[/img]
Thank you smallz for banner!